<?xml version="1.0" standalone="no"?>
<!DOCTYPE svg PUBLIC "-//W3C//DTD SVG 20010904//EN"
 "http://www.w3.org/TR/2001/REC-SVG-20010904/DTD/svg10.dtd">
<svg version="1.0" xmlns="http://www.w3.org/2000/svg"
 width="378.000000pt" height="378.000000pt" viewBox="0 0 378.000000 378.000000"
 preserveAspectRatio="xMidYMid meet">
<metadata>
Created by potrace 1.11, written by Peter Selinger 2001-2013
</metadata>
<g transform="translate(0.000000,378.000000) scale(0.100000,-0.100000)"
fill="#000000" stroke="none">
<path d="M821 3771 c-1 -14 56 -470 89 -714 16 -120 17 -152 7 -166 -27 -39
-161 -203 -307 -379 -85 -102 -171 -206 -190 -231 -20 -25 -122 -153 -228
-284 l-192 -239 0 -879 0 -879 1890 0 1890 0 0 773 0 773 -61 89 c-34 50 -80
115 -103 145 -22 30 -57 78 -76 107 -55 81 -185 261 -245 338 -30 39 -55 73
-55 76 0 4 -14 22 -31 40 -21 22 -26 34 -18 40 7 4 9 17 5 34 -5 19 -3 25 5
20 8 -5 9 1 4 24 -4 20 -3 31 4 31 7 0 9 10 5 25 -4 16 -2 25 5 25 7 0 9 10 5
26 -5 19 -4 25 5 20 7 -5 11 1 12 16 1 13 3 34 6 48 2 14 4 42 4 63 0 21 3 35
8 33 4 -3 5 9 3 26 -3 18 -1 28 5 25 5 -3 8 7 5 26 -3 25 -1 29 8 17 8 -11 9
-6 5 25 -5 31 -4 37 5 25 8 -11 9 -6 4 24 -5 30 -4 37 6 31 9 -5 11 -4 6 4
-10 16 4 112 15 105 5 -3 6 1 4 9 -3 7 24 170 59 362 36 192 63 351 61 354
-11 10 -19 -14 -37 -111 -46 -252 -112 -598 -144 -762 -20 -98 -33 -187 -31
-197 3 -11 2 -19 -3 -19 -4 0 -10 -15 -12 -32 -7 -48 -59 -271 -67 -285 -10
-19 -175 236 -176 272 0 20 -25 68 -73 140 -39 60 -72 117 -72 126 0 9 9 82
20 162 51 380 90 700 85 705 -3 3 -5 3 -5 0 0 -3 -22 -178 -50 -388 -27 -210
-50 -388 -50 -396 0 -23 -14 -16 -37 21 -13 19 -23 47 -23 62 0 16 16 159 36
318 20 160 38 311 41 338 l6 47 -40 0 c-48 0 -39 41 -84 -373 -19 -176 -37
-296 -42 -294 -6 2 -35 43 -64 93 l-54 89 5 100 c3 55 7 119 10 142 3 23 7 86
8 140 l3 98 -712 3 c-567 2 -713 0 -713 -10 0 -7 4 -60 9 -118 6 -58 12 -143
16 -190 3 -47 8 -106 11 -132 6 -47 -9 -100 -19 -68 -4 13 -48 491 -47 513 0
4 -23 7 -51 7 -28 0 -48 -4 -45 -9 4 -5 2 -20 -3 -33 -5 -15 -6 -30 0 -39 5
-8 9 -10 9 -4 0 5 5 4 11 -2 6 -6 8 -17 4 -23 -4 -6 -7 -123 -7 -258 0 -146
-4 -255 -10 -266 -9 -16 -8 -18 8 -12 17 6 17 6 -1 -14 -14 -16 -20 -17 -27
-8 -5 9 -8 4 -8 -13 0 -23 -76 -136 -85 -127 -2 2 -26 181 -55 398 -47 369
-57 435 -59 401z m1073 -740 c3 -5 -5 -11 -19 -13 -17 -4 -25 -1 -25 8 0 15
36 19 44 5z m56 -6 c0 -8 -2 -15 -4 -15 -2 0 -6 7 -10 15 -3 8 -1 15 4 15 6 0
10 -7 10 -15z m-50 -78 c25 -1 44 4 49 12 13 21 31 3 31 -30 0 -28 1 -29 50
-29 47 0 50 2 50 25 0 21 5 25 30 25 17 0 30 -5 31 -12 0 -7 2 -22 5 -33 2
-11 5 -30 6 -42 2 -17 9 -23 26 -23 23 0 23 2 18 58 -6 61 7 41 19 -30 3 -23
12 -38 23 -41 9 -3 -139 -5 -330 -6 -325 -1 -346 0 -343 17 2 9 4 25 4 35 1 9
5 17 9 17 5 0 7 -15 5 -32 -2 -21 4 -10 15 27 l19 60 103 5 c77 4 105 9 108
19 4 12 7 11 17 -3 8 -11 28 -18 55 -19z m335 -17 c0 -27 -13 -44 -16 -20 -1
6 -2 16 -3 23 -1 6 3 15 9 19 5 4 10 8 10 8 0 0 0 -13 0 -30z m-637 -5 c-6
-14 -13 -23 -16 -21 -7 7 9 46 18 46 5 0 4 -11 -2 -25z m644 -60 c3 -14 2 -25
-2 -25 -4 0 -10 11 -12 25 -3 14 -2 25 2 25 4 0 10 -11 12 -25z m-708 -39 c-3
-15 -8 -25 -11 -23 -2 3 -1 17 3 31 3 15 8 25 11 23 2 -3 1 -17 -3 -31z m336
-46 c30 -4 49 -8 42 -9 -26 -2 -2 -18 25 -16 16 1 19 0 8 -2 -11 -3 -23 -10
-27 -17 -6 -8 -8 -8 -8 0 0 7 -22 12 -54 13 -49 1 -55 -1 -59 -22 -3 -15 -5
-12 -6 11 -1 31 -3 33 -33 31 -18 -1 -45 1 -59 5 -18 5 -39 2 -60 -9 -29 -13
-31 -14 -15 0 11 8 15 15 9 15 -7 0 -19 -7 -27 -16 -15 -14 -16 -14 -16 5 0
20 5 21 113 20 61 -1 137 -4 167 -9z m103 -7 c-7 -2 -21 -2 -30 0 -10 3 -4 5
12 5 17 0 24 -2 18 -5z m65 0 c-10 -2 -26 -2 -35 0 -10 3 -2 5 17 5 19 0 27
-2 18 -5z m145 0 c-24 -2 -62 -2 -85 0 -24 2 -5 4 42 4 47 0 66 -2 43 -4z
m-429 -29 c3 -8 2 -12 -4 -9 -6 3 -10 10 -10 16 0 14 7 11 14 -7z m26 -21 c-1
-21 -2 -57 -1 -80 1 -40 3 -42 31 -41 16 1 27 4 25 9 -6 9 21 6 31 -3 3 -4 17
-3 31 3 13 5 22 6 20 1 -6 -9 74 -9 89 0 6 4 11 1 11 -7 0 -13 -34 -15 -214
-15 l-213 0 0 75 c0 41 3 75 8 75 4 0 6 -18 4 -41 -3 -31 1 -46 17 -63 12 -12
19 -25 16 -27 -4 -4 18 -4 96 4 9 1 15 7 12 14 -3 7 2 16 11 19 9 3 13 10 10
16 -7 11 4 98 12 98 3 0 5 -17 4 -37z m285 17 c-3 -5 -12 -10 -18 -10 -7 0 -6
4 3 10 19 12 23 12 15 0z m206 -103 c-13 -13 -15 53 -3 93 5 19 8 13 10 -29 2
-30 -2 -59 -7 -64z m-374 81 c-3 -8 -6 -5 -6 6 -1 11 2 17 5 13 3 -3 4 -12 1
-19z m53 3 c0 -17 7 -20 48 -21 72 -1 82 -3 82 -12 0 -12 -54 -10 -68 4 -8 8
-12 8 -12 1 0 -6 -15 -11 -32 -10 -136 0 -167 -3 -171 -20 -3 -11 -5 -7 -6 10
-1 24 2 27 19 22 15 -5 18 -3 14 9 -3 9 -2 16 4 16 5 0 12 -6 15 -13 6 -17 67
-10 68 7 0 6 4 2 9 -9 l9 -20 1 20 c2 11 2 23 1 28 0 4 4 7 9 7 6 0 10 -9 10
-19z m37 -3 c-3 -8 -6 -5 -6 6 -1 11 2 17 5 13 3 -3 4 -12 1 -19z m105 15 c-6
-2 -10 -9 -6 -14 3 -5 0 -9 -5 -9 -12 0 -14 13 -4 23 3 4 11 7 17 6 6 0 5 -3
-2 -6z m58 -14 c0 -5 -4 -9 -8 -9 -5 0 -9 7 -9 15 0 8 4 12 9 9 4 -3 8 -9 8
-15z m57 -26 c-3 -10 -5 -2 -5 17 0 19 2 27 5 18 2 -10 2 -26 0 -35z m-667 1
c0 -19 -4 -33 -8 -30 -8 5 -4 66 4 66 2 0 4 -16 4 -36z m583 16 c3 -11 1 -18
-4 -14 -5 3 -9 12 -9 20 0 20 7 17 13 -6z m61 -6 c3 -8 2 -12 -4 -9 -6 3 -10
10 -10 16 0 14 7 11 14 -7z m23 -120 c-3 -3 -26 0 -53 5 -49 10 -49 10 -6 7
23 -2 40 0 36 5 -3 5 0 9 5 9 6 0 10 3 10 8 -1 4 0 18 2 32 1 15 4 7 6 -19 3
-23 2 -45 0 -47z m-119 65 c75 -4 55 -11 -27 -11 -102 1 -122 4 -76 11 22 4
43 6 46 5 3 -2 29 -4 57 -5z m-148 -14 c0 -8 -2 -15 -4 -15 -2 0 -6 7 -10 15
-3 8 -1 15 4 15 6 0 10 -7 10 -15z m147 -41 c-3 -3 -12 -4 -19 -1 -8 3 -5 6 6
6 11 1 17 -2 13 -5z m-567 -54 c0 -5 -2 -10 -4 -10 -3 0 -8 5 -11 10 -3 6 -1
10 4 10 6 0 11 -4 11 -10z m-123 -27 c-1 -10 -6 -23 -10 -30 -5 -7 1 -16 13
-23 13 -7 20 -7 20 0 0 16 27 12 34 -5 3 -8 0 -15 -7 -15 -8 0 -7 -3 2 -9 8
-5 21 -7 29 -3 13 4 13 7 1 16 -21 17 -22 45 -2 53 10 4 21 11 25 17 4 6 8 -4
8 -21 0 -18 4 -33 9 -33 9 0 37 -60 33 -72 -2 -7 56 -13 81 -9 4 0 7 -4 7 -10
0 -8 4 -8 14 0 11 9 15 8 20 -4 3 -9 2 -13 -4 -10 -6 3 -10 0 -10 -9 0 -8 -6
-17 -12 -19 -7 -3 -4 -6 7 -6 27 -1 42 10 48 34 4 15 5 14 6 -7 1 -25 5 -28
34 -27 23 1 26 3 10 6 -36 7 -27 21 25 36 70 21 148 5 136 -27 -4 -10 34 -14
168 -19 95 -3 175 -3 178 2 3 4 14 7 25 5 11 -2 23 2 27 9 5 8 8 3 8 -11 l0
-23 -426 2 -426 2 6 29 c6 28 4 30 -19 24 -20 -5 -47 7 -125 56 -54 35 -99 66
-100 70 0 3 37 15 83 26 45 11 83 20 84 21 2 1 2 -7 0 -16z m1210 -20 c57 -15
103 -31 103 -34 0 -8 -242 -119 -261 -119 -9 0 -42 9 -74 20 -70 24 -69 24
-61 4 3 -8 2 -12 -4 -9 -6 3 -10 21 -9 38 0 27 2 29 9 12 8 -18 9 -17 9 8 1
15 7 27 14 27 8 0 7 4 -3 10 -13 9 -13 11 -1 19 16 11 63 -7 55 -20 -3 -5 -1
-9 5 -9 5 0 13 5 16 10 3 6 15 10 26 10 11 0 18 4 15 9 -4 5 0 12 6 15 7 3 1
3 -14 0 -20 -5 -28 -2 -28 8 0 17 47 38 75 32 11 -2 66 -16 122 -31z m-1469
-129 c94 -16 172 -31 172 -35 0 -4 -34 -35 -76 -68 -55 -43 -82 -59 -98 -56
-11 3 -102 19 -201 36 -99 17 -181 32 -183 34 -2 2 36 31 85 64 55 38 95 59
108 56 11 -2 98 -16 193 -31z m812 -19 c0 -8 -4 -15 -10 -15 -5 0 -7 7 -4 15
4 8 8 15 10 15 2 0 4 -7 4 -15z m1094 -46 c48 -34 85 -63 83 -65 -2 -3 -99
-22 -216 -43 l-211 -38 -77 65 c-43 35 -79 67 -81 72 -3 7 328 67 384 69 22 1
54 -15 118 -60z m-705 -87 c0 -24 -1 -25 -9 -7 -12 28 -12 47 0 40 6 -3 10
-18 9 -33z m-492 -38 c-3 -3 -12 -4 -19 -1 -8 3 -5 6 6 6 11 1 17 -2 13 -5z
m-829 -60 l92 -6 -47 -89 -48 -89 -70 5 c-38 3 -159 8 -267 11 -109 3 -198 9
-198 13 0 3 30 43 66 89 l66 83 157 -6 c86 -3 198 -8 249 -11z m455 -1 c4 -3
2 -12 -4 -20 -6 -7 -8 -13 -3 -13 12 -1 -68 -50 -80 -50 -5 0 1 11 14 25 22
23 22 25 4 25 -13 0 -8 6 16 19 42 22 45 23 53 14z m907 -53 c17 -13 20 -19
10 -19 -19 0 -60 33 -60 48 0 8 4 9 13 1 6 -5 23 -19 37 -30z m957 -74 c35
-49 62 -90 60 -91 -1 -1 -131 -5 -289 -8 l-288 -6 -34 74 c-58 126 -67 114 81
118 70 1 191 3 268 2 l139 0 63 -89z m-962 30 c17 -13 28 -26 25 -29 -3 -3
-20 8 -38 24 -39 35 -29 39 13 5z m-953 -20 c-20 -19 -39 -32 -41 -30 -7 7 52
64 66 64 7 0 -4 -15 -25 -34z m-403 -246 c17 -52 28 -97 23 -101 -8 -7 -607
-129 -634 -129 -13 0 -17 17 -23 105 -4 58 -8 108 -9 112 -1 10 597 122 605
114 4 -3 20 -49 38 -101z m2164 -80 c144 -39 285 -78 313 -86 l51 -15 -44
-122 c-25 -67 -45 -123 -46 -124 -2 -1 -326 95 -615 183 l-82 25 70 104 c39
58 75 105 81 105 6 0 129 -32 272 -70z m-1927 -236 c66 -48 127 -94 136 -103
15 -15 -6 -29 -292 -194 -250 -144 -312 -176 -327 -168 -10 5 -72 64 -137 129
l-119 120 294 150 c162 82 301 150 310 150 9 1 70 -37 135 -84z m1695 -224
c153 -107 279 -198 279 -201 0 -4 -84 -59 -186 -123 l-186 -116 -47 37 c-190
154 -501 416 -501 421 0 9 342 182 354 179 4 -2 134 -90 287 -197z m-837 8 c3
-13 12 -111 21 -218 8 -107 18 -228 21 -269 l7 -74 -69 6 c-38 4 -174 7 -301
7 l-233 0 -1 28 c-1 16 -3 20 -6 10 -4 -16 -6 -16 -19 -3 -12 12 -13 19 -3 36
9 18 9 21 -3 17 -16 -7 -62 27 -54 40 2 4 -7 8 -22 8 -20 -1 -28 4 -30 21 -2
14 -8 20 -18 16 -8 -3 -14 -1 -14 5 0 16 28 34 41 26 8 -4 9 -3 5 5 -4 6 -2
18 4 26 6 8 9 19 6 24 -4 5 -1 13 5 17 8 4 9 3 5 -4 -4 -7 -3 -12 3 -12 6 0
13 11 17 25 6 25 34 45 81 59 16 5 22 2 25 -11 2 -10 10 36 17 102 8 66 15
123 18 128 2 4 114 7 248 7 l245 0 4 -22z m-568 -580 c4 -7 4 -10 -1 -6 -4 4
-15 2 -24 -5 -14 -11 -14 -10 -2 6 16 20 18 21 27 5z m194 -8 c3 0 65 -1 138
-1 82 0 132 -4 132 -10 0 -6 -4 -8 -9 -5 -5 3 -11 -3 -14 -14 -3 -11 -11 -20
-19 -20 -8 0 -9 3 -3 8 6 4 11 13 13 20 2 9 -7 6 -24 -7 -15 -12 -33 -21 -40
-21 -7 0 -18 -8 -23 -18 -7 -14 -6 -19 4 -19 8 0 11 5 8 11 -3 7 -1 6 7 -1 17
-16 4 -32 -22 -25 -11 3 -19 1 -16 -4 4 -5 -22 -9 -58 -9 -35 0 -64 4 -64 8 0
5 -4 6 -9 2 -5 -3 -13 0 -17 6 -4 8 -9 7 -15 -2 -16 -23 -40 17 -29 47 7 17 5
27 -5 38 -13 13 -12 15 7 18 20 3 38 3 58 -2z m60 -150 c0 -5 -5 -10 -11 -10
-5 0 -7 5 -4 10 3 6 8 10 11 10 2 0 4 -4 4 -10z"/>
<path d="M2008 2883 c18 -2 45 -2 60 0 15 2 0 4 -33 4 -33 0 -45 -2 -27 -4z"/>
<path d="M2008 2863 c18 -2 45 -2 60 0 15 2 0 4 -33 4 -33 0 -45 -2 -27 -4z"/>
<path d="M1790 2840 c0 -5 5 -10 10 -10 6 0 10 5 10 10 0 6 -4 10 -10 10 -5 0
-10 -4 -10 -10z"/>
<path d="M1830 2840 c0 -5 5 -10 11 -10 5 0 7 5 4 10 -3 6 -8 10 -11 10 -2 0
-4 -4 -4 -10z"/>
<path d="M1983 2844 c11 -12 77 -15 95 -5 13 8 2 10 -42 11 -33 0 -56 -3 -53
-6z"/>
<path d="M1838 2763 c7 -3 16 -2 19 1 4 3 -2 6 -13 5 -11 0 -14 -3 -6 -6z"/>
<path d="M1870 2759 c0 -5 5 -7 10 -4 6 3 10 8 10 11 0 2 -4 4 -10 4 -5 0 -10
-5 -10 -11z"/>
<path d="M1762 2620 c0 -14 2 -19 5 -12 2 6 2 18 0 25 -3 6 -5 1 -5 -13z"/>
<path d="M1605 2620 c3 -5 8 -10 11 -10 2 0 4 5 4 10 0 6 -5 10 -11 10 -5 0
-7 -4 -4 -10z"/>
<path d="M1360 2490 c0 -5 4 -10 9 -10 6 0 13 5 16 10 3 6 -1 10 -9 10 -9 0
-16 -4 -16 -10z"/>
<path d="M1300 2481 c-14 -4 -20 -10 -14 -14 6 -3 20 0 30 8 21 16 20 16 -16
6z"/>
<path d="M1470 2486 c0 -2 7 -6 15 -10 8 -3 15 -1 15 4 0 6 -7 10 -15 10 -8 0
-15 -2 -15 -4z"/>
<path d="M1350 2445 c0 -8 5 -15 11 -15 5 0 7 5 3 11 -4 8 1 9 17 4 19 -5 21
-4 9 4 -22 15 -40 13 -40 -4z"/>
<path d="M1375 2421 c-3 -5 0 -13 6 -17 7 -4 9 -3 5 4 -3 5 0 13 6 15 9 4 10
6 1 6 -6 1 -14 -3 -18 -8z"/>
<path d="M1420 2420 c0 -5 5 -10 11 -10 5 0 7 5 4 10 -3 6 -8 10 -11 10 -2 0
-4 -4 -4 -10z"/>
<path d="M1416 2391 c-6 -10 24 -25 32 -16 3 3 -1 6 -9 6 -8 1 0 5 16 9 l30 8
-32 1 c-17 0 -34 -3 -37 -8z"/>
<path d="M2555 2470 c-3 -6 1 -7 9 -4 18 7 21 14 7 14 -6 0 -13 -4 -16 -10z"/>
<path d="M2490 2456 c0 -2 7 -7 16 -10 8 -3 12 -2 9 4 -6 10 -25 14 -25 6z"/>
<path d="M2572 2435 c-12 -26 -7 -31 18 -15 9 6 11 10 3 10 -7 0 -10 7 -7 15
10 25 -2 17 -14 -10z"/>
<path d="M2402 2431 c-11 -6 -10 -10 4 -15 20 -8 32 0 18 14 -5 5 -15 5 -22 1z"/>
<path d="M2335 2400 c-3 -5 -1 -10 4 -10 6 0 11 5 11 10 0 6 -2 10 -4 10 -3 0
-8 -4 -11 -10z"/>
<path d="M2475 2400 c3 -5 8 -10 11 -10 2 0 4 5 4 10 0 6 -5 10 -11 10 -5 0
-7 -4 -4 -10z"/>
<path d="M2360 2390 c0 -5 5 -10 10 -10 6 0 10 5 10 10 0 6 -4 10 -10 10 -5 0
-10 -4 -10 -10z"/>
<path d="M2438 2363 c6 -2 18 -2 25 0 6 3 1 5 -13 5 -14 0 -19 -2 -12 -5z"/>
<path d="M936 2361 c-10 -15 47 -20 68 -5 22 15 10 19 -13 5 -9 -6 -22 -6 -32
0 -10 5 -20 5 -23 0z"/>
<path d="M1027 2353 c-10 -9 -9 -23 1 -23 5 0 9 7 9 15 0 17 -1 18 -10 8z"/>
<path d="M1066 2345 c-3 -8 -1 -15 4 -15 13 0 22 18 11 24 -5 3 -11 -1 -15 -9z"/>
<path d="M1104 2335 c-12 -9 -14 -14 -6 -15 7 0 20 7 28 15 20 19 4 20 -22 0z"/>
<path d="M890 2330 c-8 -5 -12 -12 -9 -15 4 -3 12 1 19 10 14 17 11 19 -10 5z"/>
<path d="M1160 2329 c0 -5 5 -7 10 -4 6 3 10 8 10 11 0 2 -4 4 -10 4 -5 0 -10
-5 -10 -11z"/>
<path d="M1210 2329 c0 -6 -4 -8 -9 -4 -5 3 -12 1 -15 -4 -10 -15 25 -22 39
-7 12 12 12 15 0 20 -8 3 -15 1 -15 -5z"/>
<path d="M940 2320 c-9 -6 -10 -10 -3 -10 6 0 15 5 18 10 8 12 4 12 -15 0z"/>
<path d="M1246 2315 c-11 -8 -15 -15 -9 -15 6 0 16 7 23 15 16 19 11 19 -14 0z"/>
<path d="M964 2308 c-7 -11 18 -10 36 2 11 7 10 9 -8 7 -13 -1 -26 -5 -28 -9z"/>
<path d="M1016 2303 c-4 -11 -1 -11 14 -3 24 13 25 17 5 17 -8 0 -16 -6 -19
-14z"/>
<path d="M837 2296 c-14 -11 -15 -15 -3 -19 8 -3 16 2 19 14 3 10 4 19 4 19
-1 0 -10 -7 -20 -14z"/>
<path d="M1057 2303 c-13 -12 -7 -19 16 -20 12 0 16 1 9 4 -6 3 -10 9 -6 14 6
10 -9 12 -19 2z"/>
<path d="M1107 2293 c3 -7 9 -10 14 -7 14 8 11 21 -5 21 -8 0 -12 -6 -9 -14z"/>
<path d="M878 2293 c-10 -2 -18 -9 -18 -14 0 -14 26 -11 40 6 13 15 9 16 -22
8z"/>
<path d="M1176 2284 c17 -14 17 -15 1 -10 -11 3 -16 2 -12 -4 9 -14 31 -12 44
4 9 11 7 15 -11 20 -37 10 -43 7 -22 -10z"/>
<path d="M920 2275 c-10 -13 -9 -15 9 -15 12 0 21 6 21 15 0 8 -4 15 -9 15 -5
0 -14 -7 -21 -15z"/>
<path d="M1135 2280 c-3 -5 -1 -10 4 -10 6 0 11 5 11 10 0 6 -2 10 -4 10 -3 0
-8 -4 -11 -10z"/>
<path d="M1011 2266 c-7 -8 -8 -17 -3 -19 4 -3 13 3 20 14 14 22 0 26 -17 5z"/>
<path d="M1040 2255 c-17 -20 9 -21 36 0 19 14 19 14 -2 15 -12 0 -27 -7 -34
-15z"/>
<path d="M1090 2245 c-7 -8 -9 -15 -6 -15 4 0 14 7 22 15 9 8 11 15 6 15 -5 0
-15 -7 -22 -15z"/>
<path d="M1149 2233 c-13 -16 -12 -17 4 -4 9 7 17 15 17 17 0 8 -8 3 -21 -13z"/>
<path d="M2862 2328 c2 -6 10 -14 18 -16 7 -3 10 0 6 6 -3 6 4 12 16 15 16 3
13 5 -10 6 -22 1 -32 -3 -30 -11z"/>
<path d="M2820 2311 c0 -25 6 -27 13 -6 4 8 2 17 -3 20 -6 4 -10 -3 -10 -14z"/>
<path d="M2776 2306 c10 -8 21 -12 24 -10 5 6 -21 24 -34 24 -6 0 -1 -6 10
-14z"/>
<path d="M2682 2298 c2 -6 10 -13 16 -14 7 -1 8 0 2 3 -5 2 -8 9 -4 14 3 5 0
9 -6 9 -7 0 -10 -5 -8 -12z"/>
<path d="M2744 2295 c8 -8 18 -15 22 -15 3 0 1 7 -6 15 -7 8 -17 15 -22 15 -5
0 -3 -7 6 -15z"/>
<path d="M2910 2291 c0 -5 7 -12 16 -15 14 -5 15 -4 4 9 -14 17 -20 19 -20 6z"/>
<path d="M2590 2286 c0 -2 8 -10 18 -17 15 -13 16 -12 3 4 -13 16 -21 21 -21
13z"/>
<path d="M2655 2280 c-3 -5 1 -10 10 -10 9 0 13 5 10 10 -3 6 -8 10 -10 10 -2
0 -7 -4 -10 -10z"/>
<path d="M2832 2281 c-10 -6 -10 -10 1 -20 12 -9 16 -7 20 9 5 21 0 25 -21 11z"/>
<path d="M2873 2283 c4 -3 2 -12 -4 -20 -8 -9 -8 -13 -1 -13 6 0 14 5 17 10 4
6 12 7 18 3 7 -4 6 0 -2 10 -7 9 -18 17 -24 17 -6 0 -7 -3 -4 -7z"/>
<path d="M2730 2259 c0 -5 5 -7 10 -4 6 3 10 8 10 11 0 2 -4 4 -10 4 -5 0 -10
-5 -10 -11z"/>
<path d="M2779 2260 c-7 -5 -10 -13 -5 -17 5 -4 11 -2 13 5 4 10 8 10 19 1 8
-7 14 -7 14 -1 0 14 -25 22 -41 12z"/>
<path d="M3023 2250 c1 -12 9 -20 19 -20 24 0 23 12 -1 27 -17 11 -20 10 -18
-7z"/>
<path d="M2657 2251 c-17 -6 -17 -8 -3 -20 13 -11 17 -11 22 3 8 21 4 25 -19
17z"/>
<path d="M2700 2250 c10 -6 11 -10 3 -10 -7 0 -13 -4 -13 -9 0 -5 9 -7 20 -4
16 4 18 8 9 19 -6 8 -17 14 -23 14 -6 0 -4 -5 4 -10z"/>
<path d="M2970 2245 c7 -8 20 -15 29 -14 10 0 12 2 3 6 -6 2 -10 9 -6 14 3 5
-5 9 -17 9 -18 0 -19 -2 -9 -15z"/>
<path d="M2881 2241 c-11 -7 -10 -11 7 -20 26 -14 55 -14 47 -1 -4 6 -11 8
-16 5 -5 -3 -6 1 -3 9 7 18 -12 21 -35 7z"/>
<path d="M2930 2242 c0 -6 9 -12 20 -15 11 -3 20 -3 20 -1 0 2 -9 8 -20 14
-11 6 -20 7 -20 2z"/>
<path d="M2780 2221 c0 -6 34 -30 43 -31 5 0 6 4 3 9 -3 5 1 11 9 15 8 3 17 1
20 -4 4 -6 11 -10 18 -10 8 0 7 4 -1 13 -12 11 -92 18 -92 8z"/>
<path d="M2735 2213 c11 -3 27 -10 35 -17 13 -10 13 -9 1 7 -7 9 -23 16 -35
16 -20 -1 -20 -2 -1 -6z"/>
<path d="M2698 2194 c13 -9 26 -13 30 -9 8 8 -17 25 -38 25 -9 0 -6 -6 8 -16z"/>
<path d="M652 2098 c-21 -21 -13 -28 28 -28 29 0 42 5 50 20 10 18 8 20 -28
20 -21 0 -43 -5 -50 -12z"/>
<path d="M762 2098 c-18 -18 -14 -26 12 -24 16 1 21 5 15 12 -5 6 -6 14 -2 17
3 4 2 7 -3 7 -6 0 -15 -5 -22 -12z"/>
<path d="M826 2083 c-6 -14 -5 -15 5 -6 7 7 10 15 7 18 -3 3 -9 -2 -12 -12z"/>
<path d="M864 2089 c-3 -6 -1 -16 6 -22 10 -9 11 -9 6 1 -5 8 0 12 13 12 12 0
21 5 21 10 0 13 -37 13 -46 -1z"/>
<path d="M930 2078 c-12 -22 -12 -22 6 -6 10 10 15 20 12 24 -4 3 -12 -5 -18
-18z"/>
<path d="M970 2080 c-8 -15 -8 -20 3 -20 7 0 13 9 14 20 1 11 0 20 -2 20 -2 0
-9 -9 -15 -20z"/>
<path d="M1003 2079 c-1 -10 2 -19 8 -19 11 0 12 27 1 34 -4 2 -9 -4 -9 -15z"/>
<path d="M1041 2077 c-13 -21 -12 -21 5 -5 10 10 16 20 13 22 -3 3 -11 -5 -18
-17z"/>
<path d="M612 2048 c-20 -20 -14 -28 21 -28 31 1 31 1 9 13 -12 7 -19 16 -16
20 4 4 5 7 3 7 -3 0 -10 -5 -17 -12z"/>
<path d="M650 2049 c-13 -9 -12 -10 3 -5 11 4 17 0 17 -11 0 -13 3 -13 15 -3
8 7 15 16 15 21 0 12 -32 11 -50 -2z"/>
<path d="M721 2042 c-9 -17 -7 -20 12 -19 12 0 30 -3 39 -7 11 -5 20 -1 27 12
7 13 7 19 -2 20 -7 1 -24 4 -39 8 -20 5 -29 1 -37 -14z m49 -2 c0 -5 -4 -10
-10 -10 -5 0 -10 5 -10 10 0 6 5 10 10 10 6 0 10 -4 10 -10z"/>
<path d="M832 2038 c-7 -7 -12 -16 -12 -20 0 -13 75 -9 88 4 15 15 16 28 2 28
-5 0 -10 -6 -10 -14 0 -10 -11 -14 -32 -14 -18 1 -27 3 -20 5 13 5 17 23 4 23
-4 0 -13 -5 -20 -12z"/>
<path d="M940 2030 c-9 -16 -8 -20 5 -20 9 0 13 5 10 10 -3 6 -1 10 4 10 6 0
11 5 11 10 0 17 -19 11 -30 -10z"/>
<path d="M1020 2041 c0 -7 -7 -10 -18 -7 -12 4 -19 1 -19 -7 0 -8 7 -14 16
-13 18 1 36 24 27 33 -3 4 -6 1 -6 -6z"/>
<path d="M572 1998 c-15 -15 -16 -28 -2 -28 6 0 10 7 10 15 0 11 11 15 38 14
33 0 35 -1 14 -10 -13 -5 -28 -7 -33 -3 -5 3 -9 1 -9 -4 0 -19 45 -22 58 -5 6
9 12 20 12 25 0 13 -75 9 -88 -4z"/>
<path d="M682 1988 c-21 -21 -13 -28 31 -28 31 0 45 5 55 20 16 26 -3 28 -37
4 -18 -13 -25 -14 -34 -4 -9 10 -8 12 6 7 11 -4 16 -3 12 3 -8 13 -18 13 -33
-2z"/>
<path d="M792 1980 c-10 -17 -10 -20 4 -20 8 0 13 4 10 9 -7 11 52 26 62 16 3
-3 0 -10 -8 -15 -8 -6 -10 -10 -4 -10 12 0 34 20 34 32 0 4 -19 8 -43 8 -31 0
-45 -5 -55 -20z"/>
<path d="M911 1982 c-8 -16 -7 -21 5 -26 32 -12 63 -6 75 15 10 20 9 21 -15
17 -14 -3 -23 -1 -20 3 3 5 0 9 -5 9 -6 0 -11 -6 -11 -12 0 -10 -3 -9 -9 1 -7
11 -11 10 -20 -7z"/>
<path d="M3190 2060 c0 -6 -4 -8 -10 -5 -5 3 -10 1 -10 -4 0 -6 -5 -11 -11
-11 -5 0 -7 5 -4 10 3 6 -1 10 -10 10 -13 0 -14 -4 -5 -20 8 -16 21 -20 57
-20 45 0 45 0 31 22 -17 25 -38 35 -38 18z m23 -27 c-7 -2 -19 -2 -25 0 -7 3
-2 5 12 5 14 0 19 -2 13 -5z"/>
<path d="M2792 2043 c2 -13 15 -18 51 -20 45 -3 47 -2 37 17 -14 27 -93 30
-88 3z m73 -3 c4 -6 -6 -7 -27 -3 -44 8 -48 13 -10 13 17 0 34 -4 37 -10z"/>
<path d="M2904 2044 c3 -9 6 -18 6 -20 0 -2 5 -4 10 -4 6 0 9 6 8 13 -2 6 4
12 12 12 8 0 14 -6 13 -12 -2 -8 7 -12 22 -11 17 2 24 7 20 16 -3 8 -5 16 -5
18 0 2 -21 4 -46 4 -38 0 -45 -3 -40 -16z"/>
<path d="M3022 2040 c10 -15 24 -20 55 -20 24 0 43 4 43 8 0 19 -27 32 -67 32
-41 0 -42 -1 -31 -20z m63 0 c-3 -5 -16 -10 -28 -10 -18 0 -19 2 -7 10 20 13
43 13 35 0z"/>
<path d="M2937 2004 c-3 -4 -2 -15 4 -25 7 -14 21 -19 56 -19 45 0 45 0 31 23
-15 22 -75 36 -91 21z m58 -16 c19 0 19 -1 -2 -10 -17 -8 -26 -7 -40 8 -17 17
-17 18 2 10 11 -5 29 -8 40 -8z"/>
<path d="M3050 1996 c0 -25 28 -39 65 -32 37 7 42 15 23 34 -17 17 -88 16 -88
-2z m73 -3 c-7 -2 -19 -2 -25 0 -7 3 -2 5 12 5 14 0 19 -2 13 -5z m-28 -21
c-3 -3 -11 0 -18 7 -9 10 -8 11 6 5 10 -3 15 -9 12 -12z"/>
<path d="M3171 1992 c9 -14 25 -19 61 -21 46 -1 48 0 36 19 -10 15 -23 20 -60
20 -44 0 -47 -1 -37 -18z"/>
<path d="M2821 1979 c7 -14 21 -19 55 -19 42 0 44 1 34 20 -12 22 -25 26 -35
10 -3 -6 1 -7 9 -4 9 3 16 1 16 -5 0 -6 -16 -10 -36 -9 -31 1 -34 3 -20 13 14
11 13 13 -8 13 -22 0 -24 -3 -15 -19z"/>
<path d="M3239 1953 c-1 -5 -1 -11 0 -15 0 -5 -3 -8 -9 -8 -5 0 -10 5 -10 10
0 6 -5 10 -10 10 -7 0 -7 -6 0 -20 9 -16 21 -20 61 -20 l49 0 -16 25 c-15 23
-62 36 -65 18z m36 -12 c3 -5 0 -13 -6 -17 -7 -4 -9 -3 -5 4 3 5 0 13 -6 15
-9 4 -10 6 -1 6 6 1 14 -3 18 -8z"/>
<path d="M2840 1944 c0 -3 5 -14 10 -25 8 -14 21 -19 55 -19 44 0 44 0 33 25
-9 21 -18 25 -55 25 -23 0 -43 -3 -43 -6z m90 -25 c0 -5 -4 -9 -10 -9 -5 0
-10 7 -10 16 0 8 5 12 10 9 6 -3 10 -10 10 -16z"/>
<path d="M2960 1944 c0 -3 5 -14 10 -25 8 -14 21 -19 55 -19 49 0 50 2 35 31
-8 14 -21 19 -55 19 -25 0 -45 -3 -45 -6z m84 -19 c2 -6 -10 -12 -28 -12 -17
-1 -25 1 -18 3 6 3 10 10 7 14 -3 5 4 8 15 7 10 -1 21 -6 24 -12z"/>
<path d="M3080 1942 c0 -14 24 -32 43 -32 10 0 16 4 12 10 -3 5 -12 7 -20 3
-9 -3 -15 1 -15 11 0 9 -4 16 -10 16 -5 0 -10 -4 -10 -8z"/>
<path d="M3125 1943 c46 -10 51 -13 35 -23 -12 -8 -10 -10 8 -10 12 0 22 4 22
8 0 17 -26 32 -54 31 -20 -1 -24 -3 -11 -6z"/>
<path d="M910 1820 c-12 -8 -10 -10 9 -10 16 0 21 -4 17 -15 -3 -8 -1 -15 5
-15 13 0 8 42 -6 47 -5 1 -17 -2 -25 -7z"/>
<path d="M854 1805 c-8 -21 4 -35 32 -35 15 0 24 6 24 15 0 8 -5 15 -11 15 -5
0 -7 -4 -4 -10 3 -5 -1 -10 -9 -10 -19 0 -21 11 -4 28 9 9 8 12 -5 12 -10 0
-20 -7 -23 -15z"/>
<path d="M811 1788 c-1 -16 4 -28 9 -28 12 0 12 8 0 35 -8 18 -9 17 -9 -7z"/>
<path d="M750 1790 c0 -13 11 -13 30 0 12 8 11 10 -7 10 -13 0 -23 -4 -23 -10z"/>
<path d="M720 1778 c0 -28 15 -37 50 -28 19 4 29 8 22 9 -7 1 -10 6 -7 11 3 6
1 10 -4 10 -6 0 -11 -4 -11 -10 0 -5 -7 -10 -15 -10 -8 0 -15 7 -15 15 0 8 -4
15 -10 15 -5 0 -10 -6 -10 -12z"/>
<path d="M618 1773 c-22 -3 -28 -10 -28 -30 0 -25 1 -25 48 -18 59 9 61 10 55
35 -5 20 -16 22 -75 13z m52 -18 c0 -8 -4 -15 -10 -15 -5 0 -10 7 -10 15 0 8
5 15 10 15 6 0 10 -7 10 -15z m-30 -10 c0 -2 -6 -5 -13 -8 -8 -3 -14 1 -14 8
0 7 6 11 14 8 7 -3 13 -6 13 -8z"/>
<path d="M912 1763 c-34 -4 -48 -22 -39 -47 4 -11 15 -11 55 -4 45 9 50 12 43
31 -9 24 -13 25 -59 20z m43 -13 c3 -5 1 -10 -4 -10 -6 0 -11 5 -11 10 0 6 2
10 4 10 3 0 8 -4 11 -10z m-34 -7 c-10 -4 -10 -7 -1 -13 7 -5 2 -7 -14 -7 -21
0 -24 2 -15 13 6 8 19 14 28 13 12 0 12 -2 2 -6z"/>
<path d="M530 1741 c0 -10 7 -21 15 -25 11 -4 15 1 15 19 0 16 -6 25 -15 25
-8 0 -15 -9 -15 -19z"/>
<path d="M463 1742 c-7 -4 -10 -17 -7 -29 5 -18 11 -21 42 -16 44 7 54 13 23
13 -15 0 -20 4 -15 13 6 10 4 10 -7 0 -15 -15 -29 -17 -29 -5 0 5 10 14 23 20
20 10 21 11 2 11 -11 0 -25 -3 -32 -7z"/>
<path d="M788 1731 c7 -4 12 -14 10 -22 -2 -8 7 -15 20 -17 18 -3 22 1 22 22
0 23 -4 26 -32 26 -21 0 -28 -3 -20 -9z"/>
<path d="M740 1705 c0 -20 5 -25 25 -25 14 0 25 5 25 10 0 6 -6 10 -14 10 -8
0 -18 5 -22 12 -5 8 -2 9 10 5 10 -4 15 -3 11 3 -12 20 -35 10 -35 -15z"/>
<path d="M676 1708 c5 -7 9 -17 9 -22 0 -5 6 -11 13 -14 9 -3 13 3 10 19 -2
14 -11 25 -22 27 -13 3 -16 0 -10 -10z"/>
<path d="M613 1703 c-14 -5 -18 -39 -5 -47 4 -2 23 -1 42 4 l35 8 -32 1 c-24
1 -33 6 -33 19 0 12 3 13 8 5 4 -7 17 -10 31 -6 17 4 19 8 9 14 -14 9 -36 10
-55 2z"/>
<path d="M970 1702 c0 -5 -12 -7 -27 -4 -24 5 -26 3 -15 -10 7 -9 21 -14 32
-11 11 3 20 0 20 -6 0 -6 -6 -11 -12 -11 -7 0 -23 -3 -35 -6 -16 -4 -23 0 -28
15 -9 30 -23 26 -17 -5 4 -25 7 -26 51 -19 58 9 60 10 54 35 -6 21 -23 38 -23
22z"/>
<path d="M510 1682 c0 -5 9 -8 20 -8 10 1 18 -3 17 -9 -1 -5 -6 -9 -10 -7 -5
1 -6 -2 -2 -8 12 -20 35 -10 35 15 0 21 -5 25 -30 25 -16 0 -30 -4 -30 -8z"/>
<path d="M460 1657 c0 -31 4 -34 40 -29 25 4 27 6 15 18 -7 8 -20 14 -27 14
-10 0 -9 3 2 10 12 8 11 10 -7 10 -17 0 -23 -6 -23 -23z"/>
<path d="M792 1670 c-42 -10 -45 -14 -37 -40 6 -18 12 -20 38 -15 62 13 68 16
65 38 -3 25 -19 29 -66 17z m51 -14 c4 -9 0 -15 -11 -14 -9 0 -28 -4 -41 -8
-18 -5 -23 -4 -19 7 4 11 29 23 59 28 4 1 9 -5 12 -13z"/>
<path d="M638 1643 c-18 -3 -28 -10 -28 -21 0 -35 12 -41 66 -30 46 9 50 12
46 34 -4 25 -16 27 -84 17z m66 -12 c7 -10 -18 -23 -50 -27 -11 -1 -21 3 -21
10 0 8 8 11 20 8 14 -3 18 -1 13 6 -5 8 0 12 13 12 11 0 22 -4 25 -9z"/>
<path d="M560 1613 c0 -14 -2 -15 -9 -5 -6 9 -19 11 -45 7 -32 -6 -36 -11 -36
-37 0 -23 4 -29 16 -24 9 3 25 7 37 7 17 1 15 3 -8 9 -16 4 -22 8 -12 9 9 0
17 9 18 19 0 10 3 12 6 5 2 -7 14 -13 26 -13 18 0 19 -2 7 -10 -13 -8 -12 -10
3 -10 12 0 17 8 17 30 0 17 -4 30 -10 30 -5 0 -10 -8 -10 -17z"/>
<path d="M2920 1690 c-9 -17 -7 -22 12 -29 61 -22 75 -22 92 4 16 24 15 24
-22 34 -54 15 -70 14 -82 -9z m60 0 c3 -1 8 -2 13 -1 13 2 7 -17 -8 -23 -12
-4 -45 17 -45 29 0 3 28 -1 40 -5z"/>
<path d="M3056 1659 c-17 -24 -8 -39 24 -39 11 0 11 3 2 12 -7 7 -12 16 -12
20 0 14 38 8 55 -8 23 -24 9 -31 -17 -8 -18 15 -20 16 -9 2 7 -10 10 -18 5
-19 -5 0 2 -5 16 -10 19 -8 27 -6 37 7 21 29 15 41 -23 48 -19 4 -41 9 -49 12
-7 3 -20 -5 -29 -17z"/>
<path d="M2880 1629 c-14 -25 -16 -22 42 -42 46 -15 47 -15 62 8 9 14 16 26
16 28 0 5 -82 27 -99 27 -6 0 -15 -9 -21 -21z m50 1 c0 -5 -4 -10 -9 -10 -6 0
-13 5 -16 10 -3 6 1 10 9 10 9 0 16 -4 16 -10z m36 -27 c-7 -7 -26 7 -26 19 0
6 6 6 15 -2 9 -7 13 -15 11 -17z m-51 7 c3 -5 2 -10 -4 -10 -5 0 -13 5 -16 10
-3 6 -2 10 4 10 5 0 13 -4 16 -10z"/>
<path d="M3192 1615 c-11 -23 -9 -25 31 -35 23 -6 48 -13 54 -15 12 -4 33 23
33 43 0 8 -73 32 -98 32 -5 0 -14 -11 -20 -25z m33 -5 c3 -5 1 -10 -4 -10 -6
0 -11 5 -11 10 0 6 2 10 4 10 3 0 8 -4 11 -10z"/>
<path d="M3019 1593 c-15 -28 -14 -29 45 -47 l46 -14 15 27 14 28 -54 15 c-53
15 -53 15 -66 -9z m85 -30 c6 -15 1 -16 -43 -7 -17 4 -31 10 -31 14 0 14 69 7
74 -7z"/>
<path d="M3336 1584 c-3 -9 -6 -20 -6 -24 0 -8 101 -44 105 -37 5 6 25 46 25
50 0 6 -83 27 -103 27 -8 0 -18 -7 -21 -16z m99 -13 c3 -5 -8 -9 -25 -9 -21 1
-27 4 -18 9 17 11 35 11 43 0z m-70 -11 c3 -5 1 -10 -4 -10 -6 0 -11 5 -11 10
0 6 2 10 4 10 3 0 8 -4 11 -10z"/>
<path d="M2842 1570 c-18 -30 -15 -36 27 -48 55 -17 66 -15 79 13 11 24 9 25
-40 40 -28 8 -52 15 -52 15 -1 0 -7 -9 -14 -20z m78 -19 c6 -12 6 -22 1 -25
-5 -3 -12 2 -15 11 -6 14 -9 15 -16 4 -5 -9 -15 -11 -26 -6 -13 5 -15 9 -6 12
6 3 10 9 6 14 -3 5 6 9 20 9 15 0 30 -8 36 -19z"/>
<path d="M3161 1554 c-15 -34 -16 -32 30 -44 22 -6 47 -14 54 -17 10 -3 18 5
25 22 6 15 9 29 8 30 -2 2 -26 10 -54 18 -52 15 -52 15 -63 -9z m81 -11 c-10
-4 -10 -8 -1 -19 9 -11 7 -14 -10 -14 -11 0 -20 6 -18 13 2 14 18 27 32 26 6
0 4 -3 -3 -6z m-42 -13 c0 -5 -4 -10 -9 -10 -6 0 -13 5 -16 10 -3 6 1 10 9 10
9 0 16 -4 16 -10z"/>
<path d="M2982 1530 c-19 -31 -15 -38 29 -50 22 -6 46 -13 53 -16 19 -7 41 47
24 58 -7 4 -21 6 -30 4 -9 -2 -18 0 -20 4 -8 19 -44 19 -56 0z m38 -28 c-25
-4 -35 2 -26 17 5 7 13 7 27 -2 20 -12 20 -12 -1 -15z"/>
<path d="M3305 1509 l-15 -28 56 -16 c59 -17 67 -14 78 21 6 18 0 23 -49 36
l-56 16 -14 -29z m65 -19 c0 -5 6 -11 13 -13 6 -2 -1 -3 -18 -1 -16 3 -34 9
-40 16 -7 8 -5 9 9 4 17 -6 17 -5 5 10 -13 16 -12 16 9 5 12 -6 22 -16 22 -21z
m37 4 c-3 -3 -12 -4 -19 -1 -8 3 -5 6 6 6 11 1 17 -2 13 -5z"/>
<path d="M3125 1484 c-8 -13 -15 -25 -15 -28 0 -5 89 -36 105 -36 11 0 40 49
33 55 -2 1 -26 9 -55 18 -52 14 -53 14 -68 -9z m69 -9 c11 -8 15 -15 10 -15
-6 0 -14 4 -19 9 -6 5 -19 11 -30 14 l-20 5 20 1 c11 0 29 -6 39 -14z m-39
-15 c3 -5 -1 -10 -9 -10 -9 0 -16 5 -16 10 0 6 4 10 9 10 6 0 13 -4 16 -10z"/>
<path d="M3272 1435 c-7 -14 -12 -27 -12 -29 0 -2 20 -9 44 -15 24 -6 50 -13
58 -16 15 -6 43 39 33 55 -4 7 -82 30 -103 30 -5 0 -14 -11 -20 -25z m48 -10
c9 -11 17 -12 30 -5 23 13 30 13 30 0 0 -5 -9 -14 -21 -20 -17 -10 -24 -7 -44
14 -13 14 -20 26 -16 26 5 0 14 -7 21 -15z"/>
<path d="M1065 1463 c-41 -21 -40 -20 -20 -43 23 -25 36 -25 86 1 l40 20 -24
20 c-30 23 -43 23 -82 2z m55 -8 c0 -8 6 -15 13 -15 6 -1 1 -7 -13 -15 -28
-16 -53 -20 -30 -5 13 8 13 11 1 19 -7 5 -10 14 -7 20 10 16 36 13 36 -4z"/>
<path d="M936 1399 l-39 -21 26 -26 26 -26 52 24 51 24 -27 23 c-32 28 -39 28
-89 2z m21 -26 c3 -7 -4 -9 -16 -6 -12 3 -18 9 -15 15 7 11 26 6 31 -9z m53
-5 c0 -4 -9 -8 -21 -8 -11 0 -18 4 -15 8 3 5 12 9 21 9 8 0 15 -4 15 -9z"/>
<path d="M1137 1399 l-38 -20 31 -26 31 -26 42 23 c23 13 44 25 46 26 7 6 -44
43 -59 43 -8 0 -32 -9 -53 -20z m63 -5 c0 -10 6 -14 15 -10 8 3 15 1 15 -3 0
-17 -34 -22 -42 -6 -5 8 -17 15 -26 15 -15 0 -15 2 -2 10 23 15 40 12 40 -6z
m-20 -39 c0 -8 -4 -15 -8 -15 -5 0 -9 7 -9 15 0 8 4 15 9 15 4 0 8 -7 8 -15z"/>
<path d="M807 1334 l-48 -25 31 -26 31 -26 40 18 c58 27 64 38 29 63 -16 12
-30 22 -32 22 -2 -1 -25 -12 -51 -26z m77 -13 c3 -5 0 -13 -7 -19 -19 -16 -69
-19 -74 -4 -3 8 1 10 13 5 11 -4 15 -3 10 5 -3 6 3 12 16 15 13 2 26 5 30 6 4
0 9 -3 12 -8z"/>
<path d="M1023 1337 c-24 -11 -43 -24 -43 -28 0 -4 14 -17 30 -29 l30 -22 46
27 46 27 -28 24 c-35 28 -29 28 -81 1z m27 -17 c0 -5 -2 -10 -4 -10 -3 0 -8 5
-11 10 -3 6 -1 10 4 10 6 0 11 -4 11 -10z m51 -8 c-8 -3 -22 -13 -33 -24 -11
-11 -22 -17 -25 -14 -9 9 49 56 60 49 7 -4 7 -8 -2 -11z"/>
<path d="M1228 1337 c-21 -12 -38 -24 -37 -27 0 -3 13 -15 29 -28 l30 -23 46
27 46 27 -29 23 c-34 29 -39 29 -85 1z m55 -6 c-2 -6 7 -12 20 -12 16 -1 18
-2 5 -6 -10 -2 -18 -8 -18 -13 0 -5 -10 -14 -21 -21 -20 -10 -21 -9 -16 10 4
15 0 21 -11 21 -13 0 -12 3 4 19 20 21 41 22 37 2z"/>
<path d="M666 1263 l-50 -25 35 -29 34 -28 45 26 c25 14 47 28 49 30 7 5 -41
53 -53 53 -6 -1 -33 -13 -60 -27z m64 -14 c-13 -22 -25 -26 -16 -4 3 8 1 15
-3 15 -9 0 -25 -30 -23 -42 3 -12 -16 -10 -23 2 -7 11 9 30 40 47 26 15 38 7
25 -18z m30 -9 c0 -5 -2 -10 -4 -10 -3 0 -8 5 -11 10 -3 6 -1 10 4 10 6 0 11
-4 11 -10z"/>
<path d="M883 1263 l-43 -24 31 -26 30 -26 50 23 c27 13 49 27 49 31 0 11 -51
49 -64 48 -6 -1 -30 -12 -53 -26z m57 -8 c-7 -9 -10 -18 -6 -22 3 -3 6 -2 6 3
0 5 9 10 19 10 16 0 17 -3 9 -14 -7 -8 -21 -11 -34 -8 -13 4 -24 1 -27 -7 -3
-9 -7 -9 -20 2 -21 17 -22 32 -2 25 9 -4 15 0 15 7 0 12 2 12 9 1 7 -11 9 -11
14 2 4 9 12 16 18 16 8 0 8 -4 -1 -15z"/>
<path d="M1105 1268 c-22 -11 -42 -22 -44 -24 -5 -4 52 -53 62 -54 5 0 29 12
54 26 l45 27 -29 23 c-34 28 -38 28 -88 2z m49 -3 c-7 -17 -20 -20 -28 -6 -4
5 0 12 6 14 23 9 28 7 22 -8z m-14 -35 c0 -16 -21 -22 -35 -10 -21 17 -8 42
16 29 10 -5 19 -14 19 -19z m36 13 c-2 -9 -8 -19 -14 -21 -8 -2 -10 13 -3 36
1 1 5 2 10 2 5 0 8 -8 7 -17z"/>
<path d="M748 1192 l-48 -28 30 -29 30 -29 55 29 54 30 -26 27 c-15 16 -32 28
-37 28 -6 0 -32 -13 -58 -28z m67 -2 c-3 -5 -1 -10 5 -10 6 0 8 -4 5 -10 -3
-5 -16 -10 -28 -10 -18 0 -19 -2 -7 -10 8 -5 12 -10 8 -11 -10 -2 -46 -2 -55
0 -10 2 35 41 47 41 6 0 8 5 5 10 -3 6 1 10 10 10 9 0 13 -4 10 -10z"/>
<path d="M968 1194 l-46 -26 34 -30 33 -29 48 27 c26 15 50 29 52 30 5 5 -53
53 -64 53 -5 0 -31 -11 -57 -25z m62 12 c0 -3 -4 -8 -10 -11 -5 -3 -10 -1 -10
4 0 6 5 11 10 11 6 0 10 -2 10 -4z m-45 -30 c-18 -13 -18 -14 4 -21 16 -5 26
-2 35 11 10 13 15 14 21 4 17 -27 -62 -43 -84 -16 -10 11 -8 17 6 25 26 15 40
13 18 -3z"/>
<path d="M837 1121 c-26 -15 -50 -30 -52 -33 -3 -3 10 -17 30 -32 l36 -28 47
28 c26 15 49 29 51 31 5 4 -50 63 -58 62 -3 0 -27 -13 -54 -28z m34 -13 c0
-10 2 -10 6 0 8 21 21 13 15 -10 -3 -14 -2 -19 6 -14 7 4 12 3 12 -2 0 -6 -7
-13 -16 -16 -26 -10 -64 -7 -64 5 0 6 7 9 15 6 8 -4 17 -2 20 2 3 5 -2 12 -11
15 -8 3 -12 10 -9 16 9 14 25 12 26 -2z"/>
<path d="M2635 1353 c-40 -21 -40 -20 -25 -38 7 -9 19 -14 27 -11 17 7 43 -3
43 -16 0 -6 -7 -5 -15 2 -9 7 -18 11 -20 8 -3 -3 1 -11 10 -18 13 -11 23 -10
55 5 22 10 40 21 40 25 0 6 -75 61 -82 60 -2 -1 -16 -8 -33 -17z m65 -23 c0
-5 -5 -10 -11 -10 -5 0 -7 5 -4 10 3 6 8 10 11 10 2 0 4 -4 4 -10z"/>
<path d="M2523 1296 l-43 -21 33 -26 c51 -40 53 -40 96 -16 l41 24 -43 30 -42
31 -42 -22z m20 -36 c4 0 5 5 2 10 -3 6 -1 10 4 10 6 0 11 -4 11 -9 0 -5 10
-11 23 -15 16 -4 19 -8 9 -14 -15 -10 -82 16 -82 32 0 6 5 5 12 -2 7 -7 16
-12 21 -12z m77 0 c0 -5 -2 -10 -4 -10 -3 0 -8 5 -11 10 -3 6 -1 10 4 10 6 0
11 -4 11 -10z"/>
<path d="M2737 1269 l-39 -20 48 -34 c44 -31 49 -33 73 -20 56 31 58 33 36 49
-26 20 -35 20 -35 1 0 -8 6 -15 13 -15 12 -1 -31 -29 -45 -30 -4 0 2 15 13 34
20 35 20 35 0 45 -24 13 -18 14 -64 -10z m53 -13 c0 -12 -13 -36 -20 -36 -4 0
-10 9 -13 20 -4 15 0 20 14 20 10 0 19 -2 19 -4z"/>
<path d="M2408 1239 c-21 -11 -38 -21 -38 -23 0 -1 18 -17 40 -35 l40 -32 45
24 46 23 -40 32 c-46 37 -45 37 -93 11z m62 -9 c0 -5 -8 -7 -17 -4 -17 5 -17
5 0 -9 9 -8 17 -22 17 -31 0 -9 -8 -16 -17 -16 -14 0 -15 2 -4 9 18 11 5 31
-20 31 -21 0 -26 16 -6 23 21 9 47 7 47 -3z"/>
<path d="M2633 1213 c-18 -9 -33 -20 -33 -24 0 -4 18 -21 40 -39 l39 -31 41
23 c43 25 53 43 18 33 -16 -4 -19 -3 -10 3 11 7 7 14 -16 31 -35 25 -37 25
-79 4z m50 -22 c-2 -6 5 -11 14 -11 25 0 7 -13 -24 -16 -38 -4 -47 5 -26 26
19 20 40 20 36 1z"/>
<path d="M2861 1185 l-44 -22 47 -36 48 -36 43 21 c24 12 42 24 40 27 -2 4
-23 20 -47 38 l-43 31 -44 -23z m64 -8 c13 -11 15 -16 6 -22 -7 -4 -18 -2 -24
4 -7 7 -14 6 -22 -6 -7 -10 -17 -13 -25 -8 -10 6 -7 12 11 26 29 22 30 23 54
6z m-5 -52 c0 -8 -4 -15 -9 -15 -13 0 -22 16 -14 24 11 11 23 6 23 -9z m25 5
c3 -5 1 -10 -4 -10 -6 0 -11 5 -11 10 0 6 2 10 4 10 3 0 8 -4 11 -10z"/>
<path d="M2523 1157 c-24 -12 -43 -24 -43 -27 0 -4 19 -22 41 -40 l42 -33 43
23 c23 13 41 27 38 31 -2 4 -21 21 -42 37 l-37 29 -42 -20z m97 -47 c0 -4 -9
-6 -20 -3 -11 3 -17 9 -14 14 3 5 -2 12 -10 15 -9 3 -16 10 -16 16 0 5 14 0
30 -12 17 -12 30 -25 30 -30z m-76 18 c-5 -7 -1 -9 9 -5 10 3 17 2 17 -2 0 -5
3 -16 6 -24 4 -12 0 -14 -16 -10 -11 3 -18 8 -15 11 3 3 -7 12 -22 19 -16 7
-20 11 -10 8 11 -3 17 1 17 11 0 8 5 12 10 9 6 -4 7 -11 4 -17z"/>
<path d="M2758 1129 c-20 -10 -39 -22 -41 -26 -3 -5 15 -23 40 -42 l45 -35 43
24 c24 13 42 26 40 30 -2 3 -23 19 -47 37 l-43 31 -37 -19z m46 -5 c9 -3 14
-10 11 -14 -3 -5 5 -16 17 -24 l22 -16 -27 0 c-16 0 -26 -4 -22 -10 8 -12 -5
-13 -24 -1 -17 11 -24 41 -10 41 5 0 9 -7 9 -15 0 -9 6 -12 17 -8 14 6 14 8
-5 23 -27 22 -19 36 12 24z"/>
<path d="M2988 1096 c-21 -11 -38 -24 -38 -27 0 -8 86 -69 99 -69 10 0 81 39
81 45 0 4 -99 75 -103 74 -1 -1 -19 -11 -39 -23z m66 -21 c10 -15 22 -22 31
-19 20 8 19 -6 -2 -22 -24 -18 -33 -17 -33 1 0 9 -7 27 -16 40 -9 14 -12 25
-6 25 5 0 17 -11 26 -25z"/>
<path d="M2628 1057 l-37 -22 40 -34 c23 -18 46 -34 52 -34 16 -2 87 35 87 44
0 10 -81 69 -94 69 -6 0 -28 -10 -48 -23z m42 -12 c-7 -8 -9 -15 -4 -15 5 0 2
-4 -6 -10 -9 -6 -19 -5 -28 2 -11 9 -9 14 10 24 31 18 43 17 28 -1z m46 -15
c8 0 14 -7 14 -15 0 -9 -6 -12 -17 -8 -10 4 -14 2 -9 -5 10 -16 -11 -25 -31
-13 -17 10 -17 10 0 11 12 0 17 9 18 33 1 17 3 24 6 15 2 -10 11 -18 19 -18z"/>
<path d="M2867 1026 l-38 -23 52 -38 51 -38 44 24 c24 13 44 26 44 29 -1 8
-95 70 -106 70 -5 0 -26 -11 -47 -24z m36 -21 c8 -19 -13 -31 -23 -14 -9 14
-4 29 10 29 4 0 10 -7 13 -15z m69 -13 c-6 -2 -12 -10 -12 -18 0 -12 -4 -12
-20 -2 -11 7 -20 20 -20 30 0 15 4 16 32 6 18 -6 27 -13 20 -16z"/>
<path d="M3147 1003 c-4 -3 -7 -11 -7 -17 0 -6 5 -5 12 2 6 6 9 14 7 17 -3 3
-9 2 -12 -2z"/>
<path d="M2762 964 c-23 -14 -42 -28 -42 -32 1 -4 22 -24 47 -44 l46 -36 41
25 c23 14 43 28 46 30 4 4 -14 20 -71 63 -25 19 -26 19 -67 -6z m38 -19 c0
-12 4 -13 19 -6 14 8 22 6 36 -9 16 -18 15 -19 -10 -36 -25 -16 -29 -16 -53
-2 -29 18 -43 41 -18 32 11 -4 14 0 11 15 -2 12 0 21 6 21 5 0 9 -7 9 -15z"/>
<path d="M2805 910 c-3 -5 1 -10 9 -10 9 0 16 5 16 10 0 6 -4 10 -9 10 -6 0
-13 -4 -16 -10z"/>
<path d="M1657 1203 c-4 -3 -7 -24 -7 -45 l0 -38 60 0 60 0 0 39 c0 37 -2 39
-37 45 -49 8 -68 8 -76 -1z m63 -38 c0 -8 7 -15 15 -15 8 0 15 -4 15 -10 0
-15 -21 -12 -42 7 -22 20 -23 33 -3 33 8 0 15 -7 15 -15z m40 11 c0 -3 -4 -8
-10 -11 -5 -3 -10 -1 -10 4 0 6 5 11 10 11 6 0 10 -2 10 -4z m-62 -34 c6 -18
-15 -14 -22 4 -4 10 -1 14 6 12 6 -2 14 -10 16 -16z"/>
<path d="M1810 1160 l0 -41 58 3 57 3 3 38 3 37 -60 0 -61 0 0 -40z m43 23
c-7 -2 -19 -2 -25 0 -7 3 -2 5 12 5 14 0 19 -2 13 -5z m57 -28 c0 -29 -12 -32
-31 -9 -10 13 -10 17 2 25 23 14 29 11 29 -16z m-58 8 c-10 -4 -10 -8 -1 -19
9 -11 7 -14 -10 -14 -14 0 -21 6 -21 20 0 14 6 20 23 19 12 0 16 -3 9 -6z"/>
<path d="M1960 1160 l0 -40 60 0 60 0 0 40 0 40 -60 0 -60 0 0 -40z m48 18 c6
9 16 10 33 3 l24 -9 -27 -11 c-16 -6 -28 -15 -28 -21 0 -5 -6 -10 -12 -10 -7
0 -14 14 -15 33 -2 24 0 28 7 17 8 -12 12 -12 18 -2z"/>
<path d="M1646 1084 c-3 -9 -6 -29 -6 -45 0 -29 0 -29 59 -29 l59 0 5 38 c2
20 2 40 0 45 -2 4 -28 7 -58 7 -39 0 -54 -4 -59 -16z m43 -15 c-22 -13 -31
-11 -17 5 7 8 17 12 22 9 4 -3 2 -9 -5 -14z m61 11 c0 -5 -4 -10 -10 -10 -5 0
-10 5 -10 10 0 6 5 10 10 10 6 0 10 -4 10 -10z m-16 -16 c9 -3 16 -15 16 -26
0 -14 -5 -18 -16 -14 -9 3 -18 6 -20 6 -2 0 -4 9 -4 20 0 22 1 23 24 14z"/>
<path d="M1813 1093 c-8 -2 -13 -22 -13 -44 l0 -39 63 0 63 0 -4 40 c-3 26 -9
40 -18 40 -8 0 -14 -4 -14 -10 0 -5 -5 -10 -11 -10 -5 0 -8 4 -5 9 3 5 -3 11
-14 14 -17 4 -17 2 6 -34 l24 -39 -32 1 c-18 0 -27 3 -20 6 6 2 12 12 12 20 0
13 -2 13 -16 2 -15 -13 -17 -11 -12 19 2 17 4 32 4 31 -1 0 -7 -3 -13 -6z"/>
<path d="M1960 1050 l0 -40 65 0 c62 0 65 1 65 24 0 49 -8 56 -71 56 l-59 0 0
-40z m94 24 c17 -7 22 -34 6 -34 -5 0 -10 5 -10 11 0 5 -5 7 -10 4 -8 -5 -8
-11 0 -20 9 -10 4 -13 -25 -12 -29 1 -35 5 -35 23 0 27 39 42 74 28z"/>
<path d="M1637 973 c-4 -3 -7 -24 -7 -45 l0 -38 65 0 65 0 0 45 0 45 -58 0
c-32 0 -62 -3 -65 -7z m33 -18 c0 -8 5 -15 12 -15 6 0 9 -2 6 -5 -3 -3 -13 -3
-22 1 -17 7 -22 34 -6 34 6 0 10 -7 10 -15z m55 5 c-3 -5 -13 -10 -21 -10 -8
0 -14 5 -14 10 0 6 9 10 21 10 11 0 17 -4 14 -10z m5 -45 c11 -13 8 -15 -19
-15 -27 0 -30 2 -19 15 17 18 23 18 38 0z"/>
<path d="M1800 935 c0 -42 1 -44 33 -50 19 -4 47 -5 63 -3 27 3 29 6 32 51 l3
47 -65 0 -66 0 0 -45z m88 10 c12 -14 22 -30 22 -35 0 -8 -38 -8 -92 -1 -5 1
-8 10 -8 21 0 28 30 26 31 -2 0 -16 2 -18 6 -8 3 8 11 18 17 22 8 5 7 8 -1 8
-7 0 -13 5 -13 10 0 17 15 11 38 -15z"/>
<path d="M1970 930 l0 -50 66 0 c64 0 66 1 60 23 -3 12 -6 34 -6 50 0 26 -1
27 -60 27 l-60 0 0 -50z m70 29 c0 -8 4 -8 14 0 9 8 16 8 20 2 4 -5 -3 -12
-14 -16 -11 -3 -20 -13 -20 -21 0 -9 -11 -14 -30 -14 -27 0 -30 3 -30 30 0 27
3 30 30 30 17 0 30 -5 30 -11z m40 -53 c0 -3 -4 -8 -10 -11 -5 -3 -10 -1 -10
4 0 6 5 11 10 11 6 0 10 -2 10 -4z"/>
<path d="M2005 930 c3 -5 8 -10 11 -10 2 0 4 5 4 10 0 6 -5 10 -11 10 -5 0 -7
-4 -4 -10z"/>
<path d="M1620 800 l0 -50 65 0 65 0 0 50 0 50 -65 0 -65 0 0 -50z m120 24 c0
-11 -6 -15 -19 -11 -10 2 -25 1 -32 -4 -10 -6 -6 -9 14 -9 20 0 27 -5 27 -20
0 -21 -24 -28 -35 -10 -5 8 -11 7 -21 -1 -11 -9 -16 -7 -23 12 -5 16 -5 27 3
32 8 5 8 9 -1 15 -7 4 9 9 37 10 40 2 50 -1 50 -14z"/>
<path d="M1796 834 c-3 -9 -6 -31 -6 -50 l0 -34 70 0 70 0 0 50 0 50 -64 0
c-49 0 -65 -4 -70 -16z m74 -9 c0 -8 -9 -15 -20 -15 -11 0 -20 -4 -20 -10 0
-5 -4 -10 -10 -10 -14 0 -12 37 3 43 25 11 47 7 47 -8z m40 -5 c0 -5 -4 -10
-10 -10 -5 0 -10 5 -10 10 0 6 5 10 10 10 6 0 10 -4 10 -10z m0 -30 c0 -5 -9
-10 -20 -10 -11 0 -20 5 -20 10 0 6 9 10 20 10 11 0 20 -4 20 -10z m-80 -20
c0 -5 -4 -10 -10 -10 -5 0 -10 5 -10 10 0 6 5 10 10 10 6 0 10 -4 10 -10z"/>
<path d="M1970 800 l0 -50 68 0 67 0 -3 50 -4 50 -64 0 -64 0 0 -50z m110 26
c0 -8 -5 -18 -11 -21 -7 -5 -4 -14 7 -26 9 -10 12 -19 6 -19 -6 0 -14 5 -18
11 -5 8 -8 8 -14 0 -5 -8 -15 -7 -36 4 -19 10 -23 15 -11 15 11 0 17 8 17 25
0 21 5 25 30 25 19 0 30 -5 30 -14z m-73 -12 c-3 -3 -12 -4 -19 -1 -8 3 -5 6
6 6 11 1 17 -2 13 -5z"/>
<path d="M1551 781 c-8 -6 -9 -11 -3 -15 6 -3 14 -1 17 5 9 14 2 20 -14 10z"/>
<path d="M1830 591 c0 -6 4 -12 8 -15 5 -3 9 1 9 9 0 8 -4 15 -9 15 -4 0 -8
-4 -8 -9z"/>
<path d="M1850 549 c0 -5 5 -7 10 -4 6 3 10 8 10 11 0 2 -4 4 -10 4 -5 0 -10
-5 -10 -11z"/>
<path d="M940 3754 c0 -17 22 -14 28 4 2 7 -3 12 -12 12 -9 0 -16 -7 -16 -16z"/>
<path d="M3150 3700 c0 -5 5 -10 10 -10 6 0 10 5 10 10 0 6 -4 10 -10 10 -5 0
-10 -4 -10 -10z"/>
<path d="M3140 3648 c0 -13 -2 -48 -5 -78 -7 -72 10 -36 20 43 5 40 4 57 -4
57 -6 0 -11 -10 -11 -22z"/>
<path d="M981 3404 c0 -11 3 -14 6 -6 3 7 2 16 -1 19 -3 4 -6 -2 -5 -13z"/>
<path d="M992 3320 c0 -14 2 -19 5 -12 2 6 2 18 0 25 -3 6 -5 1 -5 -13z"/>
<path d="M1002 3240 c0 -19 2 -27 5 -17 2 9 2 25 0 35 -3 9 -5 1 -5 -18z"/>
<path d="M1012 3155 c0 -16 2 -22 5 -12 2 9 2 23 0 30 -3 6 -5 -1 -5 -18z"/>
</g>
</svg>
